<?xml version="1.0" standalone="no"?>
<!DOCTYPE svg PUBLIC "-//W3C//DTD SVG 20010904//EN"
 "http://www.w3.org/TR/2001/REC-SVG-20010904/DTD/svg10.dtd">
<svg version="1.0" xmlns="http://www.w3.org/2000/svg"
 width="381.000000pt" height="381.000000pt" viewBox="0 0 381.000000 381.000000"
 preserveAspectRatio="xMidYMid meet">
<metadata>
Created by potrace 1.14, written by Peter Selinger 2001-2017
</metadata>
<g transform="translate(0.000000,381.000000) scale(0.100000,-0.100000)"
fill="#000000" stroke="none">
<path d="M1198 3515 c-25 -33 -23 -53 12 -129 24 -54 33 -66 52 -66 31 0 68
27 68 49 0 26 -41 121 -52 121 -5 0 -6 5 -3 10 3 6 1 10 -4 10 -6 0 -11 7 -11
15 0 24 -43 17 -62 -10z"/>
<path d="M2480 3495 c-14 -15 -24 -27 -22 -28 2 -1 -2 -15 -9 -32 -28 -69 -13
-115 36 -115 28 0 47 22 76 88 28 68 20 104 -26 109 -23 3 -37 -3 -55 -22z"/>
<path d="M1847 3334 c-2 -2 -41 -6 -88 -8 -129 -7 -431 -80 -451 -110 -4 -6
-8 -8 -8 -3 0 9 -182 -82 -191 -95 -3 -5 -10 -10 -15 -10 -37 0 -271 -201
-344 -296 -14 -18 -36 -46 -50 -61 -14 -16 -47 -67 -74 -113 -27 -45 -54 -86
-59 -89 -5 -3 -8 -8 -7 -10 2 -6 -15 -50 -48 -121 -30 -65 -56 -135 -57 -153
0 -5 -4 -16 -8 -22 -5 -7 -6 -13 -2 -13 3 0 1 -8 -4 -18 -10 -18 -14 -37 -26
-99 -3 -16 -7 -37 -10 -49 -23 -104 -25 -502 -2 -541 4 -7 20 -93 22 -118 0
-5 4 -15 7 -21 4 -6 10 -25 13 -43 3 -19 12 -49 20 -67 8 -19 14 -36 15 -39 1
-9 13 -40 30 -80 9 -22 23 -55 31 -73 8 -17 18 -32 22 -32 5 0 5 -4 2 -10 -3
-5 -2 -10 3 -10 6 0 15 -13 21 -30 5 -16 15 -30 21 -30 6 0 8 -5 5 -10 -3 -6
1 -13 9 -16 9 -3 14 -9 11 -13 -2 -4 6 -18 19 -32 12 -13 26 -31 32 -40 26
-46 129 -157 214 -232 36 -32 44 -29 75 30 11 21 22 40 25 43 20 20 100 132
100 140 0 6 -22 38 -50 71 -27 33 -55 70 -61 82 -7 12 -15 24 -19 27 -15 11
-72 137 -105 234 -39 117 -52 170 -59 262 -1 17 -5 35 -8 40 -5 8 -4 199 1
199 2 0 4 10 5 22 2 13 -1 23 -6 23 -5 0 -6 5 -2 12 4 7 9 21 10 33 13 116 36
221 71 320 13 39 26 76 29 83 3 9 18 4 51 -19 27 -18 50 -35 53 -38 4 -5 27
-18 115 -65 11 -6 22 -14 25 -17 3 -3 26 -14 53 -24 26 -10 47 -22 47 -27 0
-5 4 -7 9 -3 5 3 26 -4 46 -16 20 -12 39 -19 42 -15 4 3 13 0 22 -7 23 -19 68
-37 75 -30 3 4 6 16 6 28 0 25 37 135 52 153 6 6 7 12 3 12 -5 0 0 9 10 20 10
11 15 20 12 20 -9 0 16 30 89 105 55 56 136 112 157 107 4 -1 7 3 7 8 0 5 3 9
8 8 4 -1 32 6 63 15 30 10 83 18 117 20 34 1 62 7 62 12 0 6 4 5 8 -2 4 -7 21
-11 37 -10 17 2 53 -6 80 -16 28 -10 51 -19 52 -18 9 2 97 -42 109 -54 9 -8
19 -15 23 -15 12 0 110 -98 103 -104 -3 -3 0 -6 6 -6 7 0 12 -7 12 -15 0 -8 4
-15 10 -15 10 0 80 -142 80 -163 0 -8 3 -17 7 -21 11 -11 17 -175 9 -241 -5
-34 -26 -108 -42 -142 -19 -42 -18 -62 4 -58 9 2 17 4 17 5 0 2 18 4 40 6 22
1 69 6 105 10 97 10 380 5 380 -6 0 -4 19 -7 43 -7 57 0 110 -5 122 -12 5 -3
16 -6 25 -7 8 0 31 -4 51 -8 l36 -8 3 84 c7 225 -2 343 -35 478 -2 8 -4 15 -5
15 -1 0 -3 9 -5 20 -29 180 -199 514 -327 644 -16 16 -28 31 -28 35 0 9 -108
116 -117 116 -5 1 -26 19 -48 40 -22 22 -43 40 -48 40 -4 0 -17 9 -29 20 -12
11 -28 20 -35 20 -7 0 -13 4 -13 8 0 5 -48 32 -107 61 -60 29 -116 57 -127 62
-10 6 -26 12 -35 14 -9 2 -54 15 -101 29 -121 35 -169 45 -257 52 -122 9 -182
12 -186 8z"/>
<path d="M1004 3283 c-18 -18 -18 -44 -1 -68 29 -39 101 13 75 54 -15 25 -55
32 -74 14z"/>
<path d="M2695 3286 c-45 -32 -3 -103 44 -74 27 17 28 64 2 78 -25 13 -23 13
-46 -4z"/>
<path d="M564 3155 c-23 -23 -24 -26 -9 -54 15 -30 127 -151 139 -151 4 0 17
5 29 12 43 23 53 46 30 70 -7 6 -13 15 -13 20 0 16 -123 128 -142 128 -5 0
-20 -11 -34 -25z"/>
<path d="M3114 3128 c-33 -26 -95 -88 -88 -88 3 0 -1 -9 -9 -21 -20 -28 -11
-55 24 -70 33 -13 36 -12 122 72 51 51 60 84 29 112 -25 23 -44 21 -78 -5z"/>
<path d="M490 2802 c-45 -37 7 -99 56 -67 28 18 29 52 4 72 -21 17 -34 16 -60
-5z"/>
<path d="M3196 2811 c-41 -15 -40 -77 1 -87 29 -8 65 21 61 49 -4 26 -38 47
-62 38z"/>
<path d="M358 2553 c-26 -6 -35 -63 -12 -80 23 -17 42 -17 60 2 31 30 -5 88
-48 78z"/>
<path d="M3313 2526 c-12 -34 -10 -40 16 -58 34 -23 71 -6 71 32 0 27 -18 43
-49 45 -23 1 -32 -3 -38 -19z"/>
<path d="M1907 2369 c-20 -5 -55 -18 -77 -29 -22 -11 -40 -18 -40 -15 0 17
-128 -105 -152 -144 -12 -20 -26 -39 -31 -42 -4 -3 -10 -12 -11 -20 -2 -8 -6
-21 -9 -29 -17 -47 -26 -83 -22 -90 3 -5 1 -11 -4 -14 -5 -4 -8 -14 -6 -24 2
-9 4 -20 4 -23 1 -4 36 -23 78 -43 83 -40 176 -94 210 -123 12 -10 41 -34 64
-53 55 -44 109 -98 109 -108 0 -4 8 -15 18 -23 9 -9 26 -27 37 -42 l21 -26 79
24 c44 14 86 23 93 20 6 -2 12 0 12 5 0 6 12 10 26 10 26 0 94 61 94 85 0 7 7
18 15 25 9 7 13 15 11 18 -3 2 1 17 9 33 9 16 15 32 14 36 -1 4 0 10 1 13 12
31 22 158 14 172 -4 6 -8 27 -9 47 -3 34 -38 121 -67 166 -49 75 -169 161
-263 188 -58 16 -164 20 -218 6z"/>
<path d="M108 2278 c-18 -3 -34 -11 -36 -17 -2 -6 -8 -9 -13 -5 -14 8 -11 -46
4 -59 24 -22 54 -35 65 -28 6 3 44 6 85 4 40 -1 78 2 84 5 20 13 23 69 4 86
-10 9 -21 13 -24 9 -4 -3 -7 -2 -7 3 0 10 -114 12 -162 2z"/>
<path d="M3428 2243 c-24 -29 -19 -83 8 -83 8 0 14 -4 14 -8 0 -4 42 -7 94 -7
78 0 98 4 115 19 25 23 27 58 4 77 -24 20 -218 22 -235 2z"/>
<path d="M995 2040 c-3 -5 -3 -10 2 -10 4 0 8 -19 9 -42 1 -61 8 -112 16 -118
4 -3 9 -15 11 -25 9 -47 91 -236 130 -300 41 -68 169 -225 182 -225 3 0 25
-18 47 -40 23 -22 48 -40 55 -40 7 0 13 -4 13 -10 0 -15 17 -12 39 6 16 14 17
22 9 53 -24 88 -135 291 -160 291 -4 0 -8 7 -8 15 0 7 -6 18 -13 22 -6 4 -24
24 -38 43 -15 19 -36 46 -48 59 -20 22 -27 41 -16 41 2 0 27 -13 55 -30 28
-16 53 -30 55 -30 6 0 39 -27 94 -77 25 -24 49 -43 54 -43 4 0 7 -5 7 -11 0
-6 11 -20 26 -31 14 -11 23 -22 20 -25 -2 -3 3 -13 12 -22 29 -31 52 -61 46
-61 -3 0 4 -13 15 -29 12 -16 21 -34 21 -39 0 -24 36 -19 103 17 39 21 104 51
142 66 105 43 105 43 42 106 -30 30 -71 68 -92 84 -21 17 -45 38 -54 48 -8 9
-20 17 -27 17 -6 0 -19 9 -29 20 -10 11 -27 22 -38 26 -12 4 -27 13 -35 20 -7
8 -18 12 -23 9 -5 -4 -9 -2 -9 2 0 5 -19 17 -42 27 -24 10 -65 29 -93 41 -68
31 -227 95 -237 95 -4 0 -37 14 -73 30 -36 17 -70 30 -74 30 -5 0 -11 3 -13 8
-3 7 -62 42 -71 42 -3 0 -9 -4 -12 -10z"/>
<path d="M201 1944 c-37 -26 -16 -83 31 -84 23 0 47 26 43 47 -2 10 -4 21 -4
24 -1 3 -12 11 -25 17 -18 8 -28 7 -45 -4z"/>
<path d="M3466 1929 c-19 -23 -17 -38 8 -61 25 -23 39 -23 61 2 19 21 14 69
-8 71 -6 0 -19 2 -28 4 -9 1 -24 -6 -33 -16z"/>
<path d="M948 1894 c0 -10 -1 -27 0 -36 1 -10 -2 -18 -7 -18 -6 0 -10 -8 -10
-17 0 -10 -3 -43 -6 -73 -8 -80 -12 -223 -6 -234 2 -6 6 -24 7 -40 3 -28 10
-64 14 -76 1 -3 2 -8 1 -12 -3 -24 98 -281 118 -298 3 -3 13 -18 21 -34 8 -16
31 -47 51 -70 l37 -41 74 75 c40 41 89 88 109 103 l36 28 -35 35 c-19 19 -37
34 -41 34 -15 0 -142 155 -174 213 -12 21 -29 52 -38 68 -9 16 -23 36 -30 45
-8 10 -13 20 -13 23 2 6 -8 32 -29 81 -5 14 -11 30 -12 35 0 6 -4 17 -8 25 -4
8 -16 55 -26 103 -20 91 -30 115 -33 81z"/>
<path d="M2787 1524 c-1 -1 -51 -4 -112 -7 -60 -3 -117 -8 -125 -11 -8 -3 -35
-8 -60 -10 -51 -7 -84 -12 -120 -20 -14 -3 -36 -7 -50 -10 -70 -15 -126 -29
-135 -35 -5 -3 -21 -7 -34 -9 -13 -2 -53 -14 -90 -28 -36 -14 -70 -27 -76 -28
-5 -1 -28 -10 -50 -20 -22 -10 -58 -25 -80 -34 -22 -9 -68 -33 -102 -53 -33
-21 -64 -35 -67 -32 -3 4 -6 1 -6 -5 0 -7 -6 -12 -14 -12 -8 0 -16 -3 -18 -7
-1 -5 -23 -21 -48 -38 -25 -16 -50 -35 -56 -40 -6 -6 -41 -35 -78 -65 -36 -29
-66 -57 -66 -62 0 -4 -5 -8 -11 -8 -16 0 -123 -114 -188 -200 -31 -41 -58 -77
-61 -80 -3 -3 -14 -21 -24 -40 -11 -19 -23 -37 -26 -40 -9 -6 -50 -90 -50
-101 0 -8 122 -80 216 -127 l61 -31 29 62 c16 34 34 67 40 74 6 6 17 25 24 42
7 17 16 31 21 31 5 0 9 6 9 14 0 8 11 24 25 37 13 13 25 29 25 34 0 6 14 26
31 45 17 19 43 51 58 69 14 19 44 54 66 77 22 23 54 57 71 75 17 19 53 52 80
74 26 22 55 47 65 57 9 9 20 14 23 11 3 -4 6 -2 6 3 0 5 23 23 50 39 28 16 50
33 50 37 0 4 6 8 14 8 7 0 25 9 40 21 14 11 26 17 26 12 0 -4 4 -2 9 5 4 7 18
14 29 15 12 1 22 4 22 7 0 8 119 63 137 63 7 0 13 5 13 10 0 6 3 8 6 5 3 -4
17 0 31 7 15 8 30 12 35 9 4 -3 8 -1 8 4 0 5 6 9 13 9 6 0 23 3 37 8 22 7 23
6 12 -8 -8 -9 -23 -19 -34 -23 -25 -8 -165 -91 -190 -112 -10 -8 -18 -12 -18
-9 0 4 -8 -1 -18 -10 -10 -10 -29 -25 -41 -33 -28 -18 -51 -37 -119 -97 -29
-25 -62 -54 -74 -65 -11 -10 -18 -18 -13 -18 4 0 -4 -9 -19 -21 -14 -11 -26
-26 -26 -34 0 -7 -4 -15 -9 -17 -4 -1 -12 -14 -16 -28 -7 -24 -6 -23 36 11 62
50 173 124 182 121 4 -1 7 2 7 7 0 4 20 19 45 32 25 13 45 28 45 32 0 5 4 6 9
2 5 -3 12 -1 16 4 6 11 119 66 121 60 1 -2 11 5 23 15 12 11 21 16 21 11 0 -4
10 -1 23 7 12 8 42 20 67 28 25 7 50 16 55 19 6 3 15 6 20 8 6 1 46 13 89 27
44 14 83 23 88 20 4 -3 8 -1 8 4 0 5 37 17 83 27 105 23 105 24 147 30 64 10
95 13 160 20 36 3 79 8 95 10 17 2 107 4 200 5 153 1 256 9 339 26 l30 6 -38
13 c-20 7 -54 16 -74 21 -20 4 -41 8 -47 10 -21 5 -71 16 -90 19 -11 2 -31 6
-45 10 -54 12 -86 17 -100 17 -8 0 -22 2 -30 5 -8 3 -34 7 -56 8 -23 1 -59 6
-80 10 -58 11 -398 26 -407 19z"/>
<path d="M3169 1235 c-6 -6 -59 -13 -102 -14 -25 -1 -36 -5 -31 -12 4 -8 1 -8
-12 -2 -17 8 -39 9 -54 3 -13 -5 -48 -10 -77 -13 -18 -1 -33 -5 -33 -8 0 -3
-12 -6 -27 -7 -26 -1 -65 -8 -70 -12 -2 -2 -11 -3 -20 -4 -10 -1 -24 -5 -30
-9 -7 -5 -17 -5 -23 -2 -5 3 -10 2 -10 -2 0 -5 -8 -9 -17 -10 -23 -2 -29 -3
-138 -37 -49 -16 -92 -28 -95 -28 -3 -1 -40 -15 -82 -33 -43 -18 -78 -31 -78
-28 0 3 -7 0 -15 -7 -8 -7 -15 -9 -15 -4 0 5 -4 4 -8 -2 -4 -7 -35 -23 -68
-37 -68 -29 -129 -62 -156 -85 -10 -8 -18 -12 -18 -7 0 4 -15 -4 -34 -19 -19
-14 -39 -26 -44 -26 -6 0 -12 -3 -14 -7 -1 -5 -30 -28 -63 -52 -33 -25 -62
-48 -65 -51 -3 -4 -31 -27 -63 -53 -32 -26 -56 -47 -53 -47 2 0 -12 -16 -31
-35 -19 -19 -37 -35 -40 -35 -8 0 -163 -190 -163 -201 0 -14 194 -64 211 -54
5 4 9 3 9 -2 0 -4 22 -9 48 -11 l48 -2 90 88 c112 110 305 262 334 262 5 0 10
3 10 8 0 4 21 18 48 32 26 13 50 29 54 35 5 6 8 6 8 0 0 -6 3 -5 8 1 9 14 261
140 327 164 169 60 283 99 305 104 50 10 72 15 92 22 11 3 30 8 41 9 62 10 94
16 117 22 14 4 34 7 45 8 11 1 27 3 36 3 13 2 66 46 140 117 9 8 19 15 23 15
4 0 21 13 38 29 l31 29 -47 4 c-26 2 -50 0 -52 -4 -3 -4 -16 -3 -29 2 -15 6
-27 6 -30 0 -3 -5 -13 -6 -22 -3 -21 8 -81 8 -89 0 -4 -3 -14 -2 -24 3 -10 5
-19 7 -21 5z"/>
<path d="M3025 862 c-1 -2 -13 -5 -26 -7 -54 -10 -68 -14 -154 -43 -165 -56
-190 -65 -197 -76 -4 -6 -10 -7 -14 -3 -4 4 -16 0 -26 -10 -10 -9 -18 -12 -18
-8 0 4 -9 0 -20 -10 -11 -10 -20 -15 -20 -11 0 4 -10 1 -22 -6 -13 -7 -26 -11
-30 -10 -5 1 -8 -2 -8 -6 0 -9 -44 -33 -67 -38 -7 -1 -24 -12 -39 -23 -15 -12
-31 -21 -36 -21 -5 0 -36 -18 -68 -40 -32 -22 -61 -40 -64 -40 -12 0 -208
-154 -213 -167 -3 -7 -9 -13 -14 -13 -11 0 -59 -41 -59 -51 0 -11 39 -18 46
-8 3 5 9 7 14 4 7 -4 35 0 150 21 19 4 42 7 50 8 9 1 20 5 25 8 8 4 52 16 85
23 59 11 310 124 337 151 8 8 19 14 25 14 11 0 138 90 170 119 9 9 31 27 49
41 35 27 209 196 209 203 0 5 -60 4 -65 -1z"/>
</g>
</svg>
